<svg width="96" height="126" viewBox="0 -10 96 126" fill="none" xmlns="http://www.w3.org/2000/svg">
<rect width="96" height="90" y="-10" fill="#68C7C3" />
<path d="M0 93.3333V0H96V93.3333C96 94.9481 95.0291 96.4046 93.5385 97.0256L49.5385 115.359C48.5538 115.769 47.4462 115.769 46.4615 115.359L2.46154 97.0256C0.970951 96.4046 0 94.9481 0 93.3333Z" fill="#68C7C3"/>
<path d="M48.041 25.2769L74.141 78.7029C80.19 72.1587 83.5445 63.5715 83.533 54.6599C83.533 45.2476 79.7941 36.2208 73.1386 29.5654C66.4831 22.9099 57.4562 19.1709 48.044 19.1709C38.6316 19.1709 29.6048 22.9099 22.9491 29.5653C16.2935 36.2208 12.5542 45.2475 12.554 54.6599C12.5428 63.4086 15.7759 71.8507 21.6281 78.3539L48.041 25.2769Z" fill="white"/>
<path d="M48.041 54.6599L32.547 86.5939C37.3749 88.9394 42.6735 90.1548 48.041 90.1479C53.3357 90.155 58.5643 88.973 63.3409 86.6889L48.041 54.6599Z" fill="white"/>
</svg>
